<mxfile host="Electron" agent="Mozilla/5.0 (Windows NT 10.0; Win64; x64) AppleWebKit/537.36 (KHTML, like Gecko) draw.io/28.1.2 Chrome/138.0.7204.243 Electron/37.4.0 Safari/537.36" version="28.1.2">
  <diagram name="Page-1" id="hiaTLnNfc52xqt0Ljr2w">
    <mxGraphModel dx="727" dy="441" grid="1" gridSize="10" guides="1" tooltips="1" connect="1" arrows="1" fold="1" page="1" pageScale="1" pageWidth="850" pageHeight="1100" math="0" shadow="0">
      <root>
        <mxCell id="0" />
        <mxCell id="1" parent="0" />
        <mxCell id="xGeik-n8Q1IISI9qeiR_-1" value="Note" style="swimlane;fontStyle=1;childLayout=stackLayout;horizontal=1;startSize=30;horizontalStack=0;resizeParent=1;resizeLast=0;collapsible=0;" parent="1" vertex="1">
          <mxGeometry x="120" y="120" width="160" height="150" as="geometry" />
        </mxCell>
        <mxCell id="xGeik-n8Q1IISI9qeiR_-2" value="- noteId : int" style="text;align=left;verticalAlign=top;spacingLeft=4;spacingRight=4;" parent="xGeik-n8Q1IISI9qeiR_-1" vertex="1">
          <mxGeometry y="30" width="160" height="30" as="geometry" />
        </mxCell>
        <mxCell id="xGeik-n8Q1IISI9qeiR_-3" value="- title : string" style="text;align=left;verticalAlign=top;spacingLeft=4;spacingRight=4;" parent="xGeik-n8Q1IISI9qeiR_-1" vertex="1">
          <mxGeometry y="60" width="160" height="30" as="geometry" />
        </mxCell>
        <mxCell id="xGeik-n8Q1IISI9qeiR_-4" value="- content : string" style="text;align=left;verticalAlign=top;spacingLeft=4;spacingRight=4;" parent="xGeik-n8Q1IISI9qeiR_-1" vertex="1">
          <mxGeometry y="90" width="160" height="30" as="geometry" />
        </mxCell>
        <mxCell id="xGeik-n8Q1IISI9qeiR_-5" value="- timestamp : datetime" style="text;align=left;verticalAlign=top;spacingLeft=4;spacingRight=4;" parent="xGeik-n8Q1IISI9qeiR_-1" vertex="1">
          <mxGeometry y="120" width="160" height="30" as="geometry" />
        </mxCell>
        <mxCell id="xGeik-n8Q1IISI9qeiR_-7" value="NoteManager" style="swimlane;fontStyle=1;childLayout=stackLayout;horizontal=1;startSize=30;horizontalStack=0;resizeParent=1;resizeLast=0;collapsible=0;" parent="1" vertex="1">
          <mxGeometry x="400" y="120" width="180" height="180" as="geometry" />
        </mxCell>
        <mxCell id="xGeik-n8Q1IISI9qeiR_-8" value="- notes : List" style="text;align=left;verticalAlign=top;spacingLeft=4;" parent="xGeik-n8Q1IISI9qeiR_-7" vertex="1">
          <mxGeometry y="30" width="180" height="30" as="geometry" />
        </mxCell>
        <mxCell id="xGeik-n8Q1IISI9qeiR_-9" value="+ createNote()" style="text;align=left;verticalAlign=top;spacingLeft=4;" parent="xGeik-n8Q1IISI9qeiR_-7" vertex="1">
          <mxGeometry y="60" width="180" height="30" as="geometry" />
        </mxCell>
        <mxCell id="xGeik-n8Q1IISI9qeiR_-10" value="+ readNote()" style="text;align=left;verticalAlign=top;spacingLeft=4;" parent="xGeik-n8Q1IISI9qeiR_-7" vertex="1">
          <mxGeometry y="90" width="180" height="30" as="geometry" />
        </mxCell>
        <mxCell id="xGeik-n8Q1IISI9qeiR_-11" value="+ updateNote()" style="text;align=left;verticalAlign=top;spacingLeft=4;" parent="xGeik-n8Q1IISI9qeiR_-7" vertex="1">
          <mxGeometry y="120" width="180" height="30" as="geometry" />
        </mxCell>
        <mxCell id="xGeik-n8Q1IISI9qeiR_-12" value="+ deleteNote()" style="text;align=left;verticalAlign=top;spacingLeft=4;" parent="xGeik-n8Q1IISI9qeiR_-7" vertex="1">
          <mxGeometry y="150" width="180" height="30" as="geometry" />
        </mxCell>
        <mxCell id="a7mLzHZ5j3mrXnFpYELh-5" value="" style="endArrow=none;html=1;rounded=0;exitX=0;exitY=0;exitDx=0;exitDy=0;entryX=1;entryY=0;entryDx=0;entryDy=0;" edge="1" parent="xGeik-n8Q1IISI9qeiR_-7" source="xGeik-n8Q1IISI9qeiR_-9" target="xGeik-n8Q1IISI9qeiR_-9">
          <mxGeometry width="50" height="50" relative="1" as="geometry">
            <mxPoint y="130" as="sourcePoint" />
            <mxPoint x="50" y="80" as="targetPoint" />
          </mxGeometry>
        </mxCell>
        <mxCell id="xGeik-n8Q1IISI9qeiR_-13" value="User" style="swimlane;fontStyle=1;childLayout=stackLayout;horizontal=1;startSize=30;horizontalStack=0;resizeParent=1;resizeLast=0;collapsible=0;" parent="1" vertex="1">
          <mxGeometry x="260" y="360" width="160" height="120" as="geometry" />
        </mxCell>
        <mxCell id="xGeik-n8Q1IISI9qeiR_-14" value="- userId : int" style="text;align=left;verticalAlign=top;spacingLeft=4;" parent="xGeik-n8Q1IISI9qeiR_-13" vertex="1">
          <mxGeometry y="30" width="160" height="30" as="geometry" />
        </mxCell>
        <mxCell id="xGeik-n8Q1IISI9qeiR_-15" value="- username : string" style="text;align=left;verticalAlign=top;spacingLeft=4;" parent="xGeik-n8Q1IISI9qeiR_-13" vertex="1">
          <mxGeometry y="60" width="160" height="30" as="geometry" />
        </mxCell>
        <mxCell id="xGeik-n8Q1IISI9qeiR_-16" value="+ addNote()" style="text;align=left;verticalAlign=top;spacingLeft=4;" parent="xGeik-n8Q1IISI9qeiR_-13" vertex="1">
          <mxGeometry y="90" width="160" height="30" as="geometry" />
        </mxCell>
        <mxCell id="a7mLzHZ5j3mrXnFpYELh-3" value="" style="endArrow=none;html=1;rounded=0;exitX=0;exitY=1;exitDx=0;exitDy=0;entryX=1;entryY=0;entryDx=0;entryDy=0;" edge="1" parent="xGeik-n8Q1IISI9qeiR_-13" source="xGeik-n8Q1IISI9qeiR_-15" target="xGeik-n8Q1IISI9qeiR_-16">
          <mxGeometry width="50" height="50" relative="1" as="geometry">
            <mxPoint x="140" y="40" as="sourcePoint" />
            <mxPoint x="190" y="-10" as="targetPoint" />
          </mxGeometry>
        </mxCell>
        <mxCell id="xGeik-n8Q1IISI9qeiR_-17" style="endArrow=diamond;" parent="1" source="xGeik-n8Q1IISI9qeiR_-7" target="xGeik-n8Q1IISI9qeiR_-1" edge="1">
          <mxGeometry relative="1" as="geometry" />
        </mxCell>
        <mxCell id="xGeik-n8Q1IISI9qeiR_-18" style="endArrow=block;" parent="1" source="xGeik-n8Q1IISI9qeiR_-13" target="xGeik-n8Q1IISI9qeiR_-7" edge="1">
          <mxGeometry relative="1" as="geometry" />
        </mxCell>
      </root>
    </mxGraphModel>
  </diagram>
</mxfile>
